<svg id="Layer_1" data-name="Layer 1" xmlns="http://www.w3.org/2000/svg" viewBox="0 0 1294.1 798.16"><defs><style>.cls-1{fill:#fff;}.cls-2{fill:#1b75bc;}</style></defs><title>vneulogo</title><path class="cls-1" d="M460.64,1104.1a26.51,26.51,0,0,1-6.63-.92c-9-2.46-18.14-7.91-27.13-16.2-8.69-8-18.81-19.46-30.06-34.08s-23.7-33.58-37-56.47-26.68-50-39.68-80.41c-13.09-30.62-25.71-64-37.51-99.1-11.89-35.33-23.22-71.69-33.68-108.09-10.4-36.16-21.49-70.5-33-102.06-11.34-31.17-19.86-54.87-25.32-70.44a275.48,275.48,0,0,0-17.19-39.64l-.52-1v-1.07c-.19-11.77,1.47-19,5.24-22.86a9.75,9.75,0,0,1,7-3c6,0,13.31,5.2,22.9,16.31l.55.64.3.88c1.85,5.64,6.32,11.53,11.06,17.76,5.71,7.51,11.62,15.28,14,23.81,1.47,5.26,3.34,11.44,5.51,18.6,4.28,14.12,9.61,31.69,15.12,53,8.17,31.75,17.47,66.51,27.65,103.34,10.07,36.43,21.16,72.57,33,107.41S339.78,878.25,353,908c3.69,8.34,7,16.35,10.29,24.09,8.46,20.17,15.76,37.59,25.6,53.28,4.35,6.93,8.11,13.38,11.75,19.62,7.62,13.07,14.21,24.36,22.33,33.1,4.26,4.58,7.73,8.82,10.79,12.57,5.45,6.67,9.76,11.93,15.34,15.24,11.46,6.8,14.91,7.33,15.69,7.33,1,0,2.29-.38,3.69-2.53,1.18-1.87,3.77-7.37,9.43-23,4.66-12.85,9.44-30.33,14.19-51.94,4.82-21.88,9.18-45.48,13-70.14,3.81-24.83,7-49.73,9.57-74,2.56-24.48,4.65-48.5,6.21-71.38,1.64-24,3-46.62,4.17-67.3,1.12-20.18,2-40.37,2.65-60,.55-17.94.88-33.84,1-47.28,0-1.38,0-2.52.07-3.61v-.76c-5.54-15-5.48-25.44.18-31.78a16.85,16.85,0,0,1,3.91-3.38c2.78-6.11,7.57-7,10.18-7,3,0,6.27,1.09,10.07,3.34C563,568.3,568.2,579.58,568.6,596c.37,14.64,2.25,33.83,5.57,57.06,3.36,23.42,7.21,46.69,11.45,69.16,4.12,22,8.25,43.59,13.21,69.56l1.59,8.24,11,57.71c3.67,19.33,7.28,37.13,10.74,52.89.82,3.77,1.69,7.58,2.61,11.32.06-.32.11-.65.18-1,3.29-18.26,6.6-39.65,9.84-63.57,3.61-26.59,7-51.5,10.45-76.13,3.69-26.61,7.61-51.52,11.67-74s8.53-43,13.24-60.92c4.8-18.18,10.25-34,16.21-46.9,6.14-13.4,13.47-23.74,21.78-30.75,5.62-4.73,11.8-7.13,18.37-7.13a32,32,0,0,1,12.38,2.7c10.93,4.64,18.31,14.09,21.94,28.07,3.24,12.43,6.71,27.71,10.32,45.43l1.23,6c3.45,16.79,7,34.15,10.81,52.37,4.5,21.49,9.54,43,15,63.88,5.5,21.09,11.73,41.07,18.52,59.39a228.59,228.59,0,0,0,25.9,50.16c10.22,14.84,21.29,25.61,32.9,32,4.87,2.68,10.79,4,17.6,4,8.6,0,18.8-2.15,30.32-6.39,21.5-7.94,47.5-25.82,77.29-53.15,30.23-27.79,64.19-63.49,100.94-106.11s73.09-87.66,107.71-133.71c34.93-46.45,69.28-90.86,102.09-132,33.08-41.47,60.82-75.67,82.45-101.64s38.28-45,49.78-56.88l.29-.29.38-.29c11.79-8.1,14.76-8.78,16.79-8.78a5.08,5.08,0,0,1,4.74,3c1.42,3.18.6,6.33-12.94,21.41l-.23.22-.21.21c-11.37,9.44-28.09,26.84-49.71,51.73s-49.31,58.46-82.63,100.05c-33.43,41.84-67.74,86.15-102,131.69-34.42,45.84-70.72,91.24-107.91,134.95-37,43.44-71.21,80.33-101.79,109.65-30.78,29.5-59.27,49.83-84.68,60.44-13.92,5.82-26.61,8.77-37.72,8.77a51.31,51.31,0,0,1-26.6-6.94c-15.73-9.29-29.49-22.62-40.91-39.61a240.09,240.09,0,0,1-27.25-54.9c-6.82-19.6-13.1-40.34-18.65-61.63L766.56,742q-5.34-20.4-10.63-40.73c-5.45-20.86-11-39.94-16.6-56.73-5.42-16.28-11-29.17-16.51-38.32l-2.38-4c-2.14-3.56-4.36-7.23-5.74-9.58-.37.18-.83.41-1.39.74-1.24.7-4.88,3.82-12,17.55-5.56,10.64-10.85,24.58-15.72,41.42s-9.52,36.54-13.84,58.6-8.2,46.47-11.68,73-6.69,52.26-9.47,76.13c-2.82,24.51-5,46.23-6.42,64.55-1.6,20.2-2.76,33.65-3.65,42.33-1.12,11.15-7.39,17.88-18.13,19.49a35.52,35.52,0,0,1-4.94.41c-10.2,0-14.43-5.64-16.18-10.37-2.37-6.43-3.91-14.74-4.57-24.69-.67-9.77-1.9-22.28-3.65-37.19-1.82-15.3-4.3-33.22-7.36-53.26s-7-42.26-11.72-65.67c-4.79-23.92-9.27-47.34-13.31-69.63-4.08-22.5-9.11-45.58-15-68.6-.53-2.1-1-4.16-1.57-6.14,0,.43-.12,2.65-.12,2.65-1,19.83-2.13,40.09-3.35,60.23-1.19,19.75-2.68,41.86-4.55,67.59-1.76,23.94-4,48.17-6.5,72-2.62,24.61-5.8,49.82-9.43,74.92-3.71,25.49-7.61,49.65-11.57,71.82s-7.88,41.35-11.61,56.66c-3.79,15.66-9.21,27.82-16.11,36.15C475,1100.44,468.17,1104.1,460.64,1104.1Z" transform="translate(-172.8 -305.98)"/><path class="cls-2" d="M1461.2,306.57a4.84,4.84,0,0,1,4.53,2.82c1.39,3.11.55,6.2-12.89,21.16l-.22.2-.22.22c-11.4,9.46-28.12,26.87-49.72,51.75s-49.46,58.65-82.63,100.06-67.47,85.79-102,131.7c-34.6,46.09-70.91,91.47-107.9,134.94s-71.25,80.37-101.77,109.64c-30.77,29.49-59.24,49.8-84.61,60.39-13.86,5.79-26.5,8.75-37.63,8.75a51,51,0,0,1-26.48-6.91C844,912,830.22,898.71,818.82,881.75a239.32,239.32,0,0,1-27.34-54.89c-6.79-19.51-13.07-40.24-18.64-61.61s-11.2-42.78-16.74-64.07c-5.49-21-11.08-40.09-16.6-56.74-5.44-16.31-11-29.23-16.53-38.37-2.91-4.83-6.37-10.54-8.22-13.71a17.5,17.5,0,0,0-1.6.84c-1.22.69-4.88,3.75-12.11,17.65-5.59,10.69-10.88,24.64-15.74,41.46-4.91,17-9.56,36.71-13.85,58.62s-8.21,46.54-11.69,73-6.67,52.08-9.47,76.13-4.93,45.68-6.42,64.56c-1.54,19.46-2.72,33.3-3.65,42.32-1.11,11-7.33,17.7-17.94,19.29a35.08,35.08,0,0,1-4.9.41c-10.1,0-14.25-5.57-16-10.22-2.36-6.4-3.9-14.69-4.56-24.62-.66-9.54-1.87-22.06-3.65-37.2-1.82-15.35-4.31-33.29-7.36-53.27s-7-42.09-11.72-65.68c-4.78-23.86-9.26-47.27-13.31-69.63s-9.1-45.53-15-68.62c-.64-2.57-1.28-5.12-1.94-7.57-.08,1.35-.13,2.74-.2,4.12-.91,18.19-2,38.45-3.36,60.22-1.28,21.41-2.84,44.15-4.54,67.59-1.71,23.15-3.87,47.39-6.5,72s-5.79,49.8-9.44,74.92-7.55,49.33-11.57,71.81-7.94,41.6-11.6,56.64c-3.78,15.61-9.17,27.73-16.06,36.06-5.84,7.11-12.57,10.67-20,10.67A26,26,0,0,1,454,1103c-9-2.45-18.05-7.87-27-16.14-8.65-8-18.75-19.41-30-34s-23.69-33.57-37-56.44S333.36,946.45,320.34,916s-25.64-63.74-37.51-99.08-23.2-71.61-33.68-108.08c-10.42-36.22-21.51-70.56-33-102.07-11.71-32.19-20-55.24-25.32-70.44a278.13,278.13,0,0,0-17.2-39.67l-.49-.91v-1C173,483,174.6,475.8,178.32,472a9.48,9.48,0,0,1,6.88-2.9c6,0,13.18,5.17,22.72,16.23l.55.64.25.79c4.06,12.41,20.69,25.91,25.05,41.56S246.09,567.78,254.4,600,272,666.85,282.05,703.31s21.15,72.53,33,107.43,24.54,67.75,37.72,97.5,22.22,55.58,35.91,77.4,22.17,39.91,34.11,52.76,17.4,22.65,26.18,27.85c11.52,6.84,15,7.36,15.81,7.36,1,0,2.43-.41,3.88-2.64,1.14-1.81,3.74-7.26,9.46-23,4.63-12.79,9.42-30.26,14.2-52s9.17-45.41,13-70.15,7-49.67,9.58-74,4.64-48.44,6.21-71.39,3-45.58,4.17-67.3c1.2-21.55,2.06-41.75,2.65-60,.56-18.09.88-34,1-47.29,0-1.25,0-2.42.07-3.6v-.76c-5.52-15-5.49-25.35.12-31.63a16.25,16.25,0,0,1,3.92-3.38c2.69-6,7.33-7,10-7,3,0,6.22,1.1,10,3.31,9.85,5.81,15,17,15.42,33.32.37,14.64,2.25,33.85,5.57,57.08,3.36,23.41,7.21,46.68,11.45,69.17q6.38,34,13.21,69.56l1.59,8.24,11,57.71c3.82,20.11,7.45,37.88,10.74,52.89q1.41,6.56,2.87,12.38c.14-.68.24-1.35.37-2,3.31-18.39,6.62-39.81,9.85-63.58q4.89-36,10.45-76.13c3.71-26.82,7.65-51.73,11.67-74s8.53-42.95,13.24-60.9,10.18-33.81,16.2-46.86c6.13-13.38,13.44-23.69,21.72-30.67,5.57-4.7,11.72-7.07,18.22-7.07a32,32,0,0,1,12.29,2.68c10.86,4.61,18.19,14,21.8,27.92,3.34,12.84,6.79,28.1,10.32,45.41,3.76,18.32,7.79,37.93,12,58.35,4.46,21.31,9.49,42.81,15,63.89s11.72,41,18.52,59.41a228.16,228.16,0,0,0,25.92,50.21c10.23,14.86,21.33,25.65,33,32.05,4.93,2.72,10.88,4.07,17.72,4.07,8.6,0,18.83-2.15,30.4-6.4,21.48-7.94,47.52-25.82,77.37-53.2C1031,818.68,1065,783,1101.9,740.18s73.19-87.8,107.71-133.72,69-90.47,102.09-132,60.88-75.74,82.45-101.63,38.3-45,49.77-56.86l.29-.29.35-.27c11.75-8.07,14.66-8.73,16.65-8.73m-.3,4.2h0m-1.14.32a5.37,5.37,0,0,1,.83-.27,5.37,5.37,0,0,0-.83.27m2.12,0c0-.08-.1-.1-.15-.15s.13.07.15.15m-4,.79a15.15,15.15,0,0,1,1.52-.69c-.47.2-1,.41-1.52.69m4-.25V312a.81.81,0,0,0,0-.22M1456,313c.49-.29,1-.55,1.49-.79-.5.24-1,.5-1.49.79m5.2.56.24-.41-.24.41m-7.48.81c.52-.34,1-.62,1.5-.91-.47.29-1,.57-1.5.91m6.15,1.27c.17-.27.37-.52.52-.78-.15.25-.35.51-.52.78m-8.92.47,1.82-1.15c-.57.35-1.19.74-1.82,1.15m-4,2.72c1.11-.78,2.13-1.45,3.1-2.11-1,.66-2,1.33-3.1,2.11m11.15-.81a8.9,8.9,0,0,0,.74-1,8.9,8.9,0,0,1-.74,1m-2.26,2.82.88-1.1c-.29.37-.57.73-.88,1.1m-2.79,3.28c.3-.39.59-.73.91-1.08-.32.35-.61.69-.91,1.08M184.7,473.31c.24,0,.48-.05.72-.05h-.16a5,5,0,0,0-.56.08m2.76.29a11.56,11.56,0,0,0-1.14-.24,11.56,11.56,0,0,1,1.14.24m-4.56.24a3,3,0,0,1,.73-.3,3,3,0,0,0-.73.3m6.71.63c-.44-.19-.84-.39-1.23-.56.39.17.79.37,1.23.56m-8.26.49c.21-.2.41-.4.64-.59-.23.19-.43.39-.64.59m10.61.89c-.44-.3-.88-.58-1.34-.84.46.26.9.54,1.34.84m-11.9.85a7.45,7.45,0,0,1,.55-.83,7.45,7.45,0,0,0-.55.83m14.51,1-1.51-1.17,1.51,1.17M179,479.05c.14-.4.28-.74.42-1.1-.14.35-.28.69-.42,1.1m18.35,1.17c-.57-.54-1.13-1.06-1.68-1.55.55.49,1.1,1,1.68,1.55M178.25,482c.09-.46.22-.88.32-1.32-.1.44-.23.86-.32,1.32m22.3,1.33c-.68-.72-1.37-1.44-2-2.08.65.64,1.33,1.35,2,2.08M177.7,485.6c.07-.52.15-1,.21-1.49-.06.51-.14,1-.21,1.49m27.12,2.4c-1.11-1.28-2.19-2.5-3.25-3.6,1.06,1.1,2.14,2.31,3.25,3.6m-27.4,1.79c0-.51.06-.93.08-1.4,0,.47-.07.9-.08,1.4m365.11,73.89h.5c-.1,0-.34.07-.51.07m2.81.27a10.62,10.62,0,0,0-1.35-.24,10.62,10.62,0,0,1,1.35.24m-4.86.23a5,5,0,0,1,.68-.25,5,5,0,0,0-.68.25m7.18.52a15.88,15.88,0,0,0-1.55-.57c.51.17,1,.35,1.55.57m-8.88.63a2.85,2.85,0,0,1,.57-.47,2.85,2.85,0,0,0-.57.47m12.09,1a23.25,23.25,0,0,0-2.47-1.3,23.25,23.25,0,0,1,2.47,1.3m175.23-.29c.2,0,.4-.05.62-.05h-.12l-.51.05m3.7.22a18.47,18.47,0,0,0-2.57-.24,18.47,18.47,0,0,1,2.57.24m-8.07.34c.4-.08.81-.2,1.22-.27-.41.07-.81.19-1.22.27M733,567c-.76-.2-1.52-.37-2.23-.52.71.15,1.47.32,2.23.52m-195.65.17a3.23,3.23,0,0,1,.4-.59,3.23,3.23,0,0,0-.4.59m199.92,1.18a31.37,31.37,0,0,0-3.24-1.18,31.37,31.37,0,0,1,3.24,1.18M718,567.8l1.28-.47-1.28.47m-3.51,1.84c.35-.22.7-.41,1.07-.63-.37.22-.72.41-1.07.63m2.1,18.12a.66.66,0,0,0-.25-.07.66.66,0,0,1,.25.07m-2.16.29a7.76,7.76,0,0,1,1.32-.34,7.76,7.76,0,0,0-1.32.34m-3.24,1.47a24.13,24.13,0,0,1,2.62-1.25,24.13,24.13,0,0,0-2.62,1.25M916.63,906.11c2.74-.79,5.54-1.72,8.46-2.8-2.92,1.08-5.73,2-8.46,2.8m-7.94,2.06c1.77-.41,3.58-.88,5.44-1.39-1.86.51-3.66,1-5.44,1.39M879.75,908c-.57-.19-1.13-.3-1.62-.52a16.22,16.22,0,0,0,1.62.52m21.52,1.42c1.49-.15,3-.44,4.56-.73-1.55.29-3.07.57-4.56.73m-16-.12c-.71-.13-1.43-.24-2.11-.35.68.12,1.4.22,2.11.35m9.05.66c1.32,0,2.67-.15,4-.27-1.38.12-2.74.24-4,.27m-3.26-.08c-.84,0-1.67-.07-2.45-.12.78,0,1.61.07,2.45.12m22.53,9c2.8-1,5.66-2,8.65-3.28-3,1.23-5.84,2.3-8.65,3.28m-46,1.67a44.89,44.89,0,0,1-5.73-2.84,44.89,44.89,0,0,0,5.73,2.84m37.48.88c2.53-.64,5.13-1.4,7.8-2.31-2.67.91-5.27,1.67-7.8,2.31m-31.29,1.1a35.62,35.62,0,0,1-4.1-1.32,35.62,35.62,0,0,0,4.1,1.32m23.05.59c2.35-.35,4.73-.83,7.21-1.42-2.48.59-4.86,1.06-7.21,1.42m-16.47.56c-1.35-.15-2.67-.41-4-.64,1.28.24,2.6.49,4,.64m8.59.24a65.67,65.67,0,0,0,6.7-.62,65.67,65.67,0,0,1-6.7.62m-5.38-.06c.87,0,1.74.18,2.65.18.52,0,1.08-.07,1.6-.1h-1.11c-1.07,0-2.1,0-3.14-.09h0M607.31,978.38a3.59,3.59,0,0,1-.35-.47c.12.17.24.34.35.47m2.79,2.33a2.43,2.43,0,0,1-.52-.3,2.43,2.43,0,0,0,.52.3m3.14,1.28c-.1,0-.17-.07-.25-.08.08,0,.15.07.25.08m4.65.39H617c.15,0,.27,0,.44,0a1.51,1.51,0,0,0,.47,0M450.6,1071.87a3.62,3.62,0,0,1-.43-.24,3.62,3.62,0,0,0,.43.24m3.28,1.77a4.73,4.73,0,0,1-.74-.39,4.73,4.73,0,0,0,.74.39m2.82,1.42-.9-.4.9.4m2.4,1.08a6.87,6.87,0,0,0-.92-.39,6.87,6.87,0,0,1,.92.39m2,.76c-.26-.1-.52-.17-.83-.3.31.13.56.2.83.3m1.73.49-.75-.19.75.19m1.42.25a1.76,1.76,0,0,1-.62-.08c.24,0,.41,0,.62.08M475.16,1093c.75-.76,1.52-1.59,2.26-2.48-.74.9-1.5,1.72-2.26,2.48m-2.38,2.13c.56-.49,1.12-.93,1.68-1.45-.56.52-1.11,1-1.68,1.45M470.1,1097a20.71,20.71,0,0,0,1.93-1.27,20.71,20.71,0,0,1-1.93,1.27m-3,1.49a22.3,22.3,0,0,0,2.47-1.17,22.3,22.3,0,0,1-2.47,1.17m-2.6.74a8.92,8.92,0,0,0,2-.57,8.92,8.92,0,0,1-2,.57m-6.44.3a22.35,22.35,0,0,1-2.93-.59,22.35,22.35,0,0,0,2.93.59m3.67.1a11,11,0,0,0,2-.24,11,11,0,0,1-2,.24m-2.46,0q.66.08,1.35.09h.1a8.58,8.58,0,0,1-1.45-.08h0M1461.2,306.11c-2.14,0-5.07.67-16.91,8.81l-.38.29h0l-.29.29c-11.51,11.9-28.26,31-49.8,56.89s-49.39,60.18-82.45,101.64c-32.8,41.13-67.15,85.54-102.1,132-34.61,46-70.85,91-107.69,133.7s-70.7,78.31-100.92,106.09c-29.76,27.3-55.74,45.17-77.21,53.1-11.49,4.23-21.67,6.37-30.24,6.37-6.78,0-12.66-1.35-17.49-4-11.58-6.36-22.62-17.1-32.82-31.91A228.34,228.34,0,0,1,817,819.27C810.25,801,804,781,798.52,759.9c-5.44-20.9-10.48-42.38-15-63.86-3.79-18.21-7.36-35.58-10.81-52.37l-1.23-6c-3.61-17.71-7.08-33-10.32-45.44-3.65-14.06-11.07-23.56-22.07-28.23a32.11,32.11,0,0,0-12.47-2.72c-6.64,0-12.86,2.42-18.53,7.18-8.33,7-15.68,17.4-21.83,30.83-6,13-11.43,28.75-16.22,46.94-4.71,17.95-9.17,38.45-13.25,60.93s-8,47.43-11.67,74c-3.42,24.56-6.83,49.46-10.45,76.13-3.24,23.88-6.54,45.23-9.82,63.46-.82-3.4-1.61-6.84-2.35-10.24-3.45-15.75-7.07-33.54-10.74-52.88l-11-57.71-1.59-8.24c-5-26-9.11-47.72-13.21-69.56-4.23-22.47-8.09-45.74-11.45-69.15-3.32-23.21-5.2-42.4-5.57-57-.41-16.48-5.67-27.82-15.65-33.71-3.83-2.27-7.16-3.37-10.18-3.37-2.66,0-7.53.93-10.36,7.1a16.92,16.92,0,0,0-3.9,3.4c-5.71,6.4-5.79,16.87-.24,32v.67c0,1.08-.07,2.23-.07,3.61-.09,13.43-.41,29.34-1,47.27-.64,19.62-1.53,39.81-2.65,60-1.13,20.7-2.53,43.34-4.17,67.29-1.57,22.88-3.66,46.89-6.21,71.37-2.54,24.3-5.76,49.2-9.57,74s-8.15,48.25-13,70.13c-4.76,21.6-9.53,39.06-14.19,51.91-6,16.38-8.45,21.39-9.41,22.91-1.34,2.06-2.58,2.37-3.51,2.42-.52,0-3.85-.35-15.55-7.3-5.55-3.29-9.85-8.54-15.28-15.19-3.06-3.75-6.53-8-10.8-12.58-8.1-8.73-14.68-20-22.3-33.06-3.64-6.24-7.41-12.7-11.76-19.63C379.3,969.54,372,952.12,363.55,932c-3.25-7.74-6.6-15.75-10.29-24.09-13.18-29.73-25.86-62.52-37.7-97.46s-22.9-71-33-107.4c-10.18-36.81-19.48-71.58-27.65-103.33-5.51-21.33-10.84-38.91-15.12-53-2.17-7.16-4-13.34-5.51-18.6-2.39-8.57-8.31-16.36-14-23.89-4.73-6.22-9.19-12.09-11-17.69l-.25-.79v-.09l-.06-.07-.55-.64c-9.63-11.17-17-16.38-23.07-16.39a10,10,0,0,0-7.22,3c-3.82,3.87-5.51,11.19-5.31,23v1.12l.05.1.49.91a277.79,277.79,0,0,1,17.17,39.6c5.47,15.59,14,39.3,25.32,70.45,11.47,31.55,22.56,65.88,33,102,10.46,36.4,21.79,72.78,33.68,108.1,11.8,35.14,24.43,68.49,37.52,99.12,13,30.41,26.35,57.48,39.69,80.44s25.76,41.9,37,56.49,21.38,26.1,30.08,34.11c9,8.31,18.17,13.78,27.22,16.25a26.91,26.91,0,0,0,6.68.93c7.6,0,14.45-3.65,20.36-10.84,6.92-8.35,12.35-20.55,16.15-36.24,3.73-15.31,7.64-34.38,11.61-56.67s7.86-46.34,11.57-71.82c3.65-25.11,6.82-50.32,9.44-74.93,2.55-23.86,4.74-48.09,6.5-72,1.87-25.74,3.36-47.85,4.54-67.59,1.24-20.17,2.37-40.44,3.36-60.23,0-.37,0-.75,0-1.12.4,1.52.79,3.07,1.18,4.65,5.84,23,10.87,46.09,15,68.59,4,22.29,8.53,45.72,13.32,69.64,4.67,23.4,8.61,45.49,11.72,65.66s5.54,38,7.36,53.25c1.74,14.9,3,27.41,3.64,37.18.66,10,2.2,18.3,4.58,24.75,1.79,4.8,6.07,10.52,16.42,10.52a36.51,36.51,0,0,0,5-.41c10.86-1.63,17.19-8.44,18.32-19.7.89-8.67,2.06-22.13,3.66-42.33,1.43-18.31,3.59-40,6.42-64.55,2.78-23.86,6-49.47,9.47-76.12s7.42-51,11.68-73,9-41.76,13.84-58.58,10.15-30.75,15.69-41.37c7.12-13.68,10.71-16.77,11.94-17.46.46-.27.86-.48,1.18-.64,1.4,2.36,3.56,6,5.66,9.43l2.35,3.91c5.53,9.14,11.07,22,16.49,38.28,5.57,16.79,11.16,35.87,16.59,56.71q5.28,20.31,10.62,40.68l6.12,23.4c5.57,21.3,11.83,42,18.65,61.64a240.91,240.91,0,0,0,27.4,55c11.44,17,25.23,30.36,41,39.68a51.6,51.6,0,0,0,26.72,7c11.14,0,23.86-3,37.82-8.78,25.43-10.62,54-31,84.75-60.49,30.57-29.33,64.82-66.23,101.8-109.67,37.19-43.71,73.5-89.12,107.92-135,34.23-45.54,68.54-89.85,102-131.68,33.32-41.6,61.12-75.26,82.62-100s38.32-42.28,49.66-51.69l.25-.25.21-.19c13.73-15.28,14.51-18.34,13-21.69a5.33,5.33,0,0,0-5-3.09Z" transform="translate(-172.8 -305.98)"/></svg>